<svg data-v-0dd9719b="" version="1.0" xmlns="http://www.w3.org/2000/svg" xmlns:xlink="http://www.w3.org/1999/xlink" width="100%" height="100%" viewBox="0 0 340.000000 250.000000" preserveAspectRatio="xMidYMid meet" color-interpolation-filters="sRGB" style="margin: auto;"> <rect data-v-0dd9719b="" x="0" y="0" width="100%" height="100%" fill="#fff" fill-opacity="1" class="background"></rect> <rect data-v-0dd9719b="" x="0" y="0" width="100%" height="100%" fill="url(#watermark)" fill-opacity="1" class="watermarklayer"></rect> <g data-v-0dd9719b="" fill="#333" class="icon-text-wrapper icon-svg-group iconsvg" transform="translate(47.16999816894531,86.69903182983398)"><g class="iconsvg-imagesvg" transform="translate(0,0)"><g><rect fill="#333" fill-opacity="0" stroke-width="2" x="0" y="0" width="60.00000000000001" height="76.60193802903214" class="image-rect"></rect> <svg x="0" y="0" width="60.00000000000001" height="76.60193802903214" filtersec="colorsb7585709673" class="image-svg-svg primary" style="overflow: visible;"><svg xmlns="http://www.w3.org/2000/svg" viewBox="0 0.00947151891887188 78.31999969482422 99.99053192138672"><path d="M0 23.86v52.9l7.82 6.17V28.8L56.74 5.48A5.47 5.47 0 0 0 48.92.54zM47.18 59.94l-14.09 6.72 7.34 5.16L55 64.88a3.06 3.06 0 0 0 1.74-2.76V34.88l-7.82 3.72v18.58a3.06 3.06 0 0 1-1.74 2.76z" fill="#f7d50d"></path><path d="M67.53 29.74v39.93a3.06 3.06 0 0 1-1.74 2.76L51.2 79.38l-7.35-5.16L58 67.49a3.06 3.06 0 0 0 1.74-2.76V33.47zM67.53 13L18.61 36.35v55.12l-7.82-6.18V31.41L59.7 8.09A5.48 5.48 0 0 1 67.53 13z" fill="#db0680"></path><path d="M78.32 20.58v55.11a5.47 5.47 0 0 1-3.12 4.94L62 86.94l-7.33-5.16L68.76 75a3.06 3.06 0 0 0 1.74-2.76V26.75a1.54 1.54 0 0 0-2.21-1.39L29.4 43.9V100l-7.82-6.18V39l48.91-23.36a5.48 5.48 0 0 1 7.83 4.94z" fill="#0094cd"></path></svg></svg> <!----></g></g> <g transform="translate(67,24.530967712402344)"><g data-gra="path-name" fill-rule="" class="tp-name iconsvg-namesvg"><g transform="scale(1)"><g><path d="M22.92-17.98C22.92-23.99 18.67-27.16 11.82-27.16 5.66-27.16 1.53-24.1 1.53-19.97 1.53-10.21 17.75-13.73 17.75-7.42 17.75-5.24 15.49-3.83 12.28-3.83 8.57-3.83 6.39-5.74 6.39-8.84L1.15-8.84C1.15-2.49 5.62 0.38 12.4 0.38 18.59 0.38 22.92-2.72 22.92-7.42 22.92-17.14 6.54-14.19 6.54-19.89 6.54-22.19 9.33-22.99 11.86-22.99 15.34-22.99 17.75-21.04 17.75-17.98ZM40.09-26.78L33.55-26.78 23.95 0 29.53 0 31.22-4.97 42.85-4.97 44.65 0 50.61 0ZM32.56-8.99L36.65-21.23 37.03-21.23 41.43-8.99ZM57.12 0L62.63 0 73.11-26.78 67.22-26.78 60.18-6.27 59.83-6.27 52.76-26.78 47.32-26.78ZM85.58-26.78L79.04-26.78 69.44 0 75.02 0 76.71-4.97 88.34-4.97 90.13 0 96.1 0ZM78.04-8.99L82.14-21.23 82.52-21.23 86.92-8.99ZM98.89 0L103.91 0 103.91-18.21 104.1-18.21 116.99 0 122.04 0 122.04-26.78 117.11-26.78 117.11-8.34 116.91-8.34 103.98-26.78 98.89-26.78ZM127.21 0L132.22 0 132.22-18.21 132.41-18.21 145.3 0 150.35 0 150.35-26.78 145.42-26.78 145.42-8.34 145.22-8.34 132.29-26.78 127.21-26.78ZM169.29-26.78L162.75-26.78 153.14 0 158.73 0 160.41-4.97 172.04-4.97 173.84 0 179.81 0ZM161.75-8.99L165.84-21.23 166.23-21.23 170.63-8.99Z" transform="translate(-1.149999976158142, 27.15999984741211)"></path></g> <!----> <!----> <!----> <!----> <!----> <!----> <!----></g></g> <!----></g></g><defs v-gra="od"></defs></svg>